<svg xmlns="http://www.w3.org/2000/svg" viewBox="5.3 11.68 33.28 20.52">
    <path fill="currentcolor"
        d="M13.2,29.83c-4.35,0-7.89-3.54-7.89-7.89s3.54-7.89,7.89-7.89h5.89v-2.34l4.88,2.82-4.88,2.82v-2.34h-5.89c-3.82,0-6.93,3.11-6.93,6.93s3.11,6.93,6.93,6.93h2.1c.26,0,.48.22.48.48s-.22.48-.48.48h-2.1Z"></path>
    <path fill="currentcolor"
        d="M19.91,29.35l4.88-2.82v2.34h5.89c3.82,0,6.93-3.11,6.93-6.93s-3.11-6.93-6.93-6.93h-1.89c-.27,0-.48-.22-.48-.48s.22-.48.48-.48h1.89c4.35,0,7.89,3.54,7.89,7.89s-3.54,7.89-7.89,7.89h-5.89v2.34l-4.88-2.82Z"></path>
</svg>