<svg xmlns="http://www.w3.org/2000/svg" viewBox="0 0 324.55 324.55" fill="currentcolor">
    <path class="cls-1"
        d="M162.28,0C72.8,0,0,72.8,0,162.28s72.8,162.28,162.28,162.28,162.28-72.8,162.28-162.28S251.76,0,162.28,0ZM162.28,311.63c-82.35,0-149.35-67-149.35-149.35S79.92,12.93,162.28,12.93s149.35,67,149.35,149.35-67,149.35-149.35,149.35Z" />
    <path class="cls-1"
        d="M232.27,98.75c0-1.73-.67-3.35-1.89-4.57-1.22-1.22-2.84-1.89-4.57-1.89s-3.35.67-4.57,1.89l-58.96,58.96-58.96-58.96c-1.22-1.22-2.84-1.89-4.57-1.89s-3.35.67-4.57,1.89c-2.52,2.52-2.52,6.62,0,9.14l58.96,58.96-58.96,58.96c-1.22,1.22-1.89,2.84-1.89,4.57s.67,3.35,1.89,4.57c1.22,1.22,2.84,1.89,4.57,1.89s3.35-.67,4.57-1.89l58.96-58.96,58.96,58.96c1.22,1.22,2.84,1.89,4.57,1.89s3.35-.67,4.57-1.89c1.22-1.22,1.89-2.84,1.89-4.57s-.67-3.35-1.89-4.57l-58.96-58.96,58.96-58.96c1.22-1.22,1.89-2.84,1.89-4.57Z" />
</svg>