<svg xmlns="http://www.w3.org/2000/svg" fill="currentcolor" viewBox="92.27 92.27 140.02 140.02">
    <path
        d="M232.27,98.75c0-1.73-.67-3.35-1.89-4.57-1.22-1.22-2.84-1.89-4.57-1.89s-3.35.67-4.57,1.89l-58.96,58.96-58.96-58.96c-1.22-1.22-2.84-1.89-4.57-1.89s-3.35.67-4.57,1.89c-2.52,2.52-2.52,6.62,0,9.14l58.96,58.96-58.96,58.96c-1.22,1.22-1.89,2.84-1.89,4.57s.67,3.35,1.89,4.57c1.22,1.22,2.84,1.89,4.57,1.89s3.35-.67,4.57-1.89l58.96-58.96,58.96,58.96c1.22,1.22,2.84,1.89,4.57,1.89s3.35-.67,4.57-1.89c1.22-1.22,1.89-2.84,1.89-4.57s-.67-3.35-1.89-4.57l-58.96-58.96,58.96-58.96c1.22-1.22,1.89-2.84,1.89-4.57Z"></path>
</svg>