<svg xmlns="http://www.w3.org/2000/svg" fill="currentcolor" viewBox="-0.03 -0.03 142.67 139.83">     <path d="M141.76,106.29l-8.17-8.17c-.57-.57-1.34-.89-2.15-.89s-1.58.32-2.15.89l-4.45,4.45c-1.77-2.08-2.78-4.77-2.78-7.51v-6.85c0-3.73-1.45-7.24-4.09-9.87l-7.24-7.24,3.43-4.19c1.88-2.29,2.91-5.19,2.91-8.14v-7.82c0-2.8,1.09-5.42,3.07-7.4l1.65-1.65,2.86,2.86c.57.57,1.34.89,2.15.89s1.58-.32,2.15-.89l8.17-8.17c.57-.57.89-1.34.89-2.15s-.32-1.58-.89-2.15L108.83,3.99c-1.19-1.19-3.12-1.19-4.3,0l-8.17,8.17c-.57.57-.89,1.34-.89,2.15s.32,1.58.89,2.15l4.45,4.45c-2.08,1.77-4.77,2.78-7.51,2.78h-6.85c-3.73,0-7.24,1.45-9.87,4.09l-3.58,3.58-9.18-7.52c-2.3-1.88-5.19-2.91-8.14-2.91h-7.82c-2.79,0-5.42-1.09-7.4-3.07l-1.65-1.65,2.86-2.86c1.19-1.19,1.19-3.12,0-4.3L33.48.89c-1.19-1.19-3.12-1.19-4.3,0L.89,29.18c-1.19,1.19-1.19,3.12,0,4.3l8.17,8.17c.57.57,1.34.89,2.15.89s1.58-.32,2.15-.89l4.45-4.45c1.77,2.08,2.78,4.77,2.78,7.51v6.85c0,3.73,1.45,7.24,4.09,9.87l5.16,5.16-3.64,4.45c-1.88,2.3-2.91,5.19-2.91,8.14v7.82c0,2.8-1.09,5.42-3.07,7.4l-1.65,1.65-2.86-2.86c-1.19-1.19-3.12-1.19-4.3,0l-8.17,8.17c-.57.57-.89,1.34-.89,2.15s.32,1.58.89,2.15l28.29,28.29c.57.57,1.34.89,2.15.89s1.58-.32,2.15-.89l8.17-8.17h0c.57-.57.89-1.34.89-2.15s-.32-1.58-.89-2.15l-4.45-4.45c2.08-1.77,4.77-2.78,7.51-2.78h6.85c3.73,0,7.24-1.45,9.87-4.09l3.61-3.61,11.44,9.37c2.3,1.88,5.19,2.91,8.14,2.91h7.82c2.8,0,5.42,1.09,7.4,3.07l1.65,1.65-2.86,2.86c-1.19,1.19-1.19,3.12,0,4.3l8.17,8.17c.57.57,1.34.89,2.15.89s1.58-.32,2.15-.89l28.29-28.29c1.19-1.19,1.19-3.12,0-4.3ZM97.84,14.32c0-.18.07-.34.19-.46,0,0,0,0,0,0l8.17-8.17c.13-.13.3-.19.47-.19s.34.06.47.19l28.29,28.29c.12.12.19.29.19.47s-.07.34-.19.46l-8.17,8.17c-.25.25-.68.25-.93,0l-3.7-3.7s0,0,0,0,0,0,0,0l-19.26-19.26h0s0,0,0,0l-5.33-5.33c-.12-.12-.19-.29-.19-.46ZM11.68,39.97c-.25.25-.68.25-.93,0h0L2.58,31.8c-.26-.26-.26-.67,0-.93L30.87,2.58c.12-.12.29-.19.47-.19s.34.07.47.19l8.17,8.17c.26.26.26.67,0,.93l-3.7,3.7s0,0,0,0,0,0,0,0l-19.25,19.25s0,0,0,0c0,0,0,0,0,0l-5.32,5.32ZM42.51,123.63c0,.18-.07.34-.19.47h0s-8.17,8.17-8.17,8.17c-.25.25-.68.25-.93,0l-28.29-28.29c-.12-.12-.19-.29-.19-.47s.07-.34.19-.47l8.17-8.17c.13-.13.3-.19.47-.19s.34.06.47.19l3.7,3.7s0,0,0,0,0,0,0,0l19.26,19.26s0,0,0,0c0,0,0,0,0,0l5.33,5.33c.12.12.19.29.19.46ZM103.89,120.21c-2.43-2.43-5.65-3.76-9.09-3.76h-7.82c-2.4,0-4.76-.84-6.63-2.37l-11.26-9.22,4.66-4.66c1.41.51,2.86.99,4.36,1.42,3.24.93,6.55,1.66,9.85,2.15l2.14.32c.06,0,.12.01.18.01.58,0,1.09-.42,1.18-1.01.1-.65-.35-1.26-1-1.36l-2.14-.32c-3.2-.48-6.41-1.18-9.54-2.08-1.07-.31-2.12-.65-3.15-1l12.95-12.95c1.23-1.22,1.9-2.84,1.9-4.58s-.67-3.36-1.9-4.58c-1.09-1.09-2.49-1.71-3.93-1.85l.19-.19c1.14-1.14,1.77-2.66,1.77-4.26s-.63-3.12-1.77-4.27c-.96-.96-2.19-1.53-3.45-1.7l1.64-1.64c1.12-1.12,1.74-2.62,1.74-4.22s-.62-3.09-1.74-4.21c-1.13-1.13-2.63-1.75-4.22-1.75h0c-1.59,0-3.09.62-4.21,1.75l-.83.83c-.19-1.21-.74-2.34-1.63-3.22-2.27-2.26-5.96-2.26-8.22,0l-15.51,15.51c-.47.47-.47,1.22,0,1.69.47.47,1.22.47,1.69,0l15.51-15.51c1.33-1.33,3.51-1.33,4.85,0,.65.65,1.01,1.51,1.01,2.43s-.36,1.77-1.01,2.42l-13.33,13.33c-.47.47-.47,1.22,0,1.69.23.23.54.35.84.35s.61-.12.84-.35l13.33-13.33,4.15-4.15c.67-.68,1.57-1.05,2.52-1.05h0c.96,0,1.85.37,2.53,1.05.67.67,1.05,1.57,1.05,2.53s-.37,1.86-1.04,2.53l-4.92,4.92s-.07.06-.11.1l-16.8,16.81c-.47.47-.47,1.22,0,1.69.47.47,1.22.47,1.69,0l16.86-16.86c1.42-1.37,3.71-1.35,5.1.05.69.7,1.07,1.62,1.07,2.59s-.38,1.89-1.07,2.58l-3.63,3.63s-.07.07-.1.1l-12.34,12.35c-.47.47-.47,1.22,0,1.69.47.47,1.22.47,1.69,0l12.39-12.39c1.59-1.54,4.16-1.52,5.73.05.77.77,1.2,1.8,1.2,2.89s-.43,2.12-1.2,2.89l-14.31,14.31s-.01.01-.02.02l-10.47,10.47c-2.18,2.18-5.09,3.39-8.19,3.39h-6.85c-3.37,0-6.67,1.27-9.2,3.48l-17.61-17.61,1.65-1.65c2.43-2.43,3.76-5.65,3.76-9.09v-7.82c0-2.4.84-4.76,2.37-6.63l14.66-17.9c.07-.09.16-.11.23-.11.05,0,.15.02.23.11.85,1.06,1.31,2.39,1.31,3.75,0,.84-.17,1.66-.51,2.43-1.36,3.07-2.52,6.25-3.46,9.48-.93,3.23-1.66,6.55-2.15,9.85l-.32,2.14c-.1.65.35,1.26,1,1.36.65.09,1.26-.35,1.36-1l.32-2.14c.48-3.2,1.18-6.41,2.08-9.55.91-3.12,2.03-6.21,3.35-9.18.47-1.07.71-2.22.71-3.39,0-1.9-.65-3.77-1.84-5.24-.5-.63-1.26-1-2.07-1h-.02c-.8,0-1.56.36-2.07.98l-9.51,11.61-4.99-4.99c-2.18-2.18-3.39-5.09-3.39-8.19v-6.85c0-3.37-1.27-6.67-3.48-9.2l17.61-17.61,1.65,1.65c2.43,2.43,5.65,3.76,9.09,3.76h7.82c2.4,0,4.76.84,6.63,2.37l17.9,14.66c.09.07.11.17.11.23,0,.06-.02.15-.11.22-1.06.85-2.39,1.31-3.75,1.31-.84,0-1.66-.17-2.43-.51-3.06-1.36-6.25-2.52-9.48-3.46-3.23-.93-6.55-1.66-9.86-2.15l-2.14-.32c-.65-.1-1.26.35-1.36,1-.1.65.35,1.26,1,1.36l2.14.32c3.2.48,6.41,1.18,9.55,2.08,3.12.91,6.21,2.03,9.18,3.35,1.07.47,2.22.71,3.39.71,1.9,0,3.77-.65,5.24-1.84.63-.5,1-1.26,1-2.07,0-.81-.35-1.57-.98-2.09l-6.87-5.63,3.41-3.41c2.18-2.19,5.09-3.39,8.19-3.39h6.85c3.37,0,6.67-1.27,9.2-3.48l17.61,17.61-1.65,1.65c-2.43,2.43-3.76,5.65-3.76,9.09v7.82c0,2.41-.84,4.76-2.37,6.63l-14.66,17.9c-.07.09-.18.11-.23.11-.06,0-.15-.02-.22-.11-.85-1.06-1.31-2.39-1.31-3.75,0-.84.17-1.66.51-2.43,1.36-3.07,2.52-6.25,3.46-9.48.93-3.24,1.66-6.55,2.15-9.85l.32-2.14c.1-.65-.35-1.26-1-1.36-.65-.1-1.26.35-1.36,1l-.32,2.14c-.48,3.2-1.18,6.41-2.08,9.55-.91,3.12-2.03,6.21-3.35,9.18-.47,1.07-.71,2.22-.71,3.39,0,1.9.65,3.77,1.84,5.24.5.63,1.26,1,2.07,1.01h.02c.8,0,1.56-.36,2.07-.98l9.72-11.87,7.07,7.07c2.18,2.19,3.39,5.09,3.39,8.19v6.85c0,3.37,1.27,6.66,3.48,9.2l-17.61,17.61-1.65-1.65ZM140.07,108.91l-28.29,28.29c-.25.25-.68.25-.93,0l-8.17-8.17c-.26-.26-.26-.67,0-.93l3.69-3.69s0,0,.01,0c0,0,0,0,0-.01l19.25-19.25s0,0,0,0c0,0,0,0,0,0l5.32-5.32c.12-.12.29-.19.47-.19s.34.07.47.19h0l8.17,8.17c.26.26.26.67,0,.93Z"></path> </svg>