<svg xmlns="http://www.w3.org/2000/svg" viewBox="0 0 63.94 64.8" fill="currentcolor">
    <path
        d="M63.58,1.88c-.61-1.16-1.86-1.88-3.28-1.88H3.64C2.22,0,.96.72.35,1.88c-.61,1.16-.43,2.5.47,3.49l21.64,23.92c.12.13.18.29.18.46v24.39c0,1.07.57,2.07,1.54,2.69l11.52,7.37c.62.4,1.34.61,2.09.61,2.01,0,3.64-1.48,3.64-3.29v-31.92c0-.17.06-.33.18-.46L63.11,5.37c.9-.99,1.08-2.33.47-3.49ZM38.05,29.59v31.92c0,.21-.25.22-.25.22-.05,0-.1-.02-.13-.04l-11.52-7.37c-.06-.04-.1-.11-.1-.18v-24.39c0-.87-.34-1.73-.95-2.4h0S3.45,3.43,3.45,3.43c-.07-.08-.08-.14-.03-.24.05-.09.11-.13.22-.13h56.67c.11,0,.17.03.22.13.05.09.04.16-.03.24l-21.49,23.76c-.61.68-.95,1.53-.95,2.4Z" />
</svg>