<svg xmlns="http://www.w3.org/2000/svg" viewBox="0 0 20 20">
    <g stroke="none" stroke-width="1" fill="none" fill-rule="evenodd">
        <g id="Dribbble-Light-Preview" transform="translate(-260.000000, -7759.000000)"
            fill="currentcolor">
            <g id="icons" transform="translate(56.000000, 160.000000)">
                <path
                    d="M214,7611 L218,7611 L218,7607 L214,7607 L214,7611 Z M210,7607 L214,7607 L214,7603 L210,7603 L210,7607 Z M214,7603 L218,7603 L218,7599 L214,7599 L214,7603 Z M222,7599 L222,7603 L218,7603 L218,7607 L222,7607 L222,7611 L224,7611 L224,7599 L222,7599 Z M206,7607 L210,7607 L210,7611 L206,7611 L206,7619 L204,7619 L204,7599 L210,7599 L210,7603 L206,7603 L206,7607 Z"
                    id="finish_line-[#103]"> </path>
            </g>
        </g>
    </g>
</svg>