<svg xmlns="http://www.w3.org/2000/svg" fill="currentcolor" viewBox="0 0 125 134.38">
    <path
        d="M59.67,48.46c.45,0,.92,0,1.38,0,.94,0,1.92,0,2.86,0,6.72.02,12.52.03,15.84-3.28,1.78-1.77,2.64-4.3,2.64-7.74,0-6.3-3.03-12.3-8.11-16.04-.52-.39-1.26-.29-1.66.23-.31.39-.64.77-1.01,1.13-2.44,2.44-5.68,3.78-9.12,3.78s-6.69-1.34-9.12-3.78c-.36-.36-.7-.74-1.01-1.13-.4-.51-1.14-.61-1.66-.23-5.08,3.74-8.11,9.74-8.11,16.04,0,3.43.86,5.96,2.64,7.74,3.09,3.08,8.33,3.28,14.46,3.28ZM51.24,24.05c.13.15.27.29.41.43,2.89,2.89,6.74,4.49,10.83,4.49s7.94-1.59,10.83-4.49c.14-.14.28-.28.41-.43,3.93,3.31,6.25,8.24,6.25,13.4,0,2.76-.63,4.73-1.93,6.03-2.61,2.6-7.94,2.59-14.12,2.57-.47,0-.95,0-1.44,0s-.96,0-1.44,0c-6.18.01-11.52.03-14.12-2.57-1.3-1.3-1.93-3.27-1.93-6.03,0-5.16,2.32-10.09,6.25-13.4Z"></path>
    <path
        d="M62.48,22.58c3.35,0,6.5-1.47,8.66-4.04,1.7-2.03,2.63-4.6,2.63-7.25,0-6.23-5.07-11.29-11.29-11.29s-11.29,5.07-11.29,11.29c0,2.65.94,5.22,2.63,7.25,2.15,2.57,5.31,4.04,8.66,4.04ZM62.48,2.41c4.9,0,8.88,3.98,8.88,8.88,0,2.08-.74,4.11-2.07,5.7-1.69,2.02-4.17,3.18-6.81,3.18s-5.12-1.16-6.81-3.18c-1.33-1.59-2.07-3.62-2.07-5.7,0-4.9,3.98-8.88,8.88-8.88Z"></path>
    <path
        d="M31.7,99.85c-.52-.39-1.26-.29-1.66.23-.31.39-.64.77-1.01,1.13-2.44,2.44-5.68,3.78-9.12,3.78s-6.69-1.34-9.13-3.78c-.36-.36-.7-.74-1.01-1.13-.4-.51-1.14-.61-1.66-.23-5.08,3.74-8.11,9.74-8.11,16.04,0,3.43.86,5.96,2.64,7.74,3.31,3.31,9.12,3.29,15.84,3.28.94,0,1.92,0,2.86,0,.46,0,.92,0,1.38,0,6.13,0,11.37-.2,14.46-3.28,1.78-1.77,2.64-4.3,2.64-7.74,0-6.3-3.03-12.3-8.11-16.04ZM35.47,121.91c-2.61,2.6-7.94,2.59-14.12,2.57-.47,0-.95,0-1.44,0s-.96,0-1.44,0c-6.18.01-11.52.03-14.12-2.57-1.3-1.3-1.93-3.27-1.93-6.03,0-5.16,2.32-10.09,6.25-13.4.13.15.27.29.41.43,2.89,2.89,6.74,4.49,10.83,4.49s7.94-1.59,10.83-4.49c.14-.14.28-.28.41-.43,3.93,3.31,6.25,8.24,6.25,13.4,0,2.76-.63,4.73-1.93,6.03Z"></path>
    <path
        d="M19.91,101.02c3.35,0,6.5-1.47,8.66-4.04,1.7-2.03,2.63-4.6,2.63-7.25,0-6.23-5.07-11.29-11.29-11.29s-11.29,5.07-11.29,11.29c0,2.65.94,5.22,2.63,7.25,2.15,2.57,5.31,4.04,8.66,4.04ZM19.91,80.85c4.9,0,8.88,3.98,8.88,8.88,0,2.08-.74,4.11-2.07,5.7-1.69,2.02-4.17,3.18-6.81,3.18s-5.12-1.16-6.81-3.18c-1.33-1.59-2.07-3.62-2.07-5.7,0-4.9,3.98-8.88,8.88-8.88Z"></path>
    <path
        d="M116.85,99.85c-.52-.39-1.26-.29-1.66.23-.3.39-.64.77-1.01,1.13-2.44,2.44-5.68,3.78-9.12,3.78s-6.69-1.34-9.12-3.78c-.36-.36-.7-.74-1.01-1.13-.4-.51-1.14-.61-1.66-.23-5.08,3.74-8.11,9.74-8.11,16.04,0,3.43.86,5.96,2.64,7.74,3.31,3.31,9.12,3.29,15.84,3.28.94,0,1.92,0,2.86,0,.46,0,.92,0,1.38,0,6.13,0,11.37-.2,14.46-3.28,1.78-1.77,2.64-4.3,2.64-7.74,0-6.3-3.03-12.3-8.11-16.04ZM120.62,121.91c-2.61,2.6-7.94,2.59-14.12,2.57-.47,0-.95,0-1.44,0s-.96,0-1.44,0c-6.18.01-11.52.03-14.12-2.57-1.3-1.3-1.93-3.27-1.93-6.03,0-5.16,2.32-10.09,6.25-13.4.13.15.27.29.41.43,2.89,2.89,6.74,4.49,10.83,4.49s7.94-1.59,10.83-4.49c.14-.14.28-.28.41-.43,3.93,3.31,6.25,8.24,6.25,13.4,0,2.76-.63,4.73-1.93,6.03Z"></path>
    <path
        d="M93.76,89.73c0,2.65.94,5.22,2.63,7.25,2.15,2.57,5.31,4.04,8.66,4.04s6.5-1.47,8.66-4.04c1.7-2.03,2.63-4.6,2.63-7.25,0-6.23-5.07-11.29-11.29-11.29s-11.29,5.07-11.29,11.29ZM113.93,89.73c0,2.08-.74,4.11-2.07,5.7-1.69,2.02-4.17,3.18-6.81,3.18s-5.12-1.16-6.81-3.18c-1.33-1.59-2.07-3.62-2.07-5.7,0-4.9,3.98-8.88,8.88-8.88s8.88,3.98,8.88,8.88Z"></path>
    <path
        d="M88.62,41.25c11.6,7.41,19.62,19.38,22.01,32.86.1.59.61,1,1.19,1,.07,0,.14,0,.21-.02.59-.1,1-.61,1-1.19,0-.07,0-.14-.02-.21-2.51-14.14-10.92-26.71-23.09-34.48-.56-.36-1.31-.19-1.67.37-.13.2-.19.43-.19.65,0,.4.2.79.56,1.02Z"></path>
    <path
        d="M82.5,127.59c-12.54,5.67-26.95,5.85-39.55.48-.61-.26-1.32.02-1.58.64-.07.15-.1.32-.1.47,0,.47.28.91.73,1.11,6.41,2.73,13.27,4.09,20.14,4.09,7.29,0,14.58-1.53,21.35-4.6.45-.2.71-.64.71-1.1,0-.17-.03-.34-.11-.5-.27-.61-.99-.88-1.6-.6Z"></path>
    <path
        d="M12.32,75.09c.07.01.14.02.21.02.57,0,1.08-.41,1.19-.99,2.43-13.54,10.45-25.52,22.01-32.87.36-.23.56-.62.56-1.02,0-.22-.06-.44-.19-.65-.36-.56-1.1-.73-1.67-.37-12.12,7.7-20.54,20.27-23.09,34.48-.01.07-.02.14-.02.21,0,.57.41,1.08.99,1.19Z"></path>
</svg>