<svg xmlns="http://www.w3.org/2000/svg" fill="currentcolor" viewBox="0 0 145.95 123.92">
    <path
        d="M135.34,1.15c-.06-.65-.59-1.15-1.25-1.15h-43.66c-.66,0-1.19.49-1.25,1.15l-5.03,57.59-11.12-8.9c-.22-.18-.5-.28-.78-.28-.19,0-.37.04-.54.12-.43.21-.71.65-.71,1.13v25.79l-33.46-26.77c-.22-.18-.5-.28-.78-.28-.19,0-.37.04-.54.12-.43.21-.71.65-.71,1.13v25.79L2.04,49.83c-.22-.18-.5-.27-.78-.27-.19,0-.37.04-.54.12-.43.21-.71.65-.71,1.13v71.85c0,.69.56,1.25,1.25,1.25h143.43c.35,0,.69-.15.92-.41.24-.26.36-.61.33-.96L135.34,1.15ZM91.58,2.51h41.36l1.29,14.74h-43.93l1.29-14.74ZM106.49,121.4H2.51s0-67.98,0-67.98l33.46,26.77c.22.18.5.27.78.27.19,0,.37-.04.54-.12.43-.21.71-.65.71-1.13v-25.79l33.46,26.77c.22.18.5.27.78.27.19,0,.37-.04.54-.12.43-.21.71-.65.71-1.13v-25.79l32.99,26.4v41.59ZM109,121.4v-42.19c0-.38-.17-.74-.47-.98l-22.02-17.62,3.57-40.86h44.37l8.87,101.65h-34.32Z"></path>
    <path
        d="M33.1,87.79H12.73c-.69,0-1.25.56-1.25,1.25v15.27c0,.69.56,1.25,1.25,1.25h20.36c.69,0,1.25-.56,1.25-1.25v-15.27c0-.69-.56-1.25-1.25-1.25ZM31.84,103.06H13.99v-12.77h17.86v12.77Z"></path>
    <path
        d="M64.68,87.79h-20.36c-.69,0-1.25.56-1.25,1.25v15.27c0,.69.56,1.25,1.25,1.25h20.36c.69,0,1.25-.56,1.25-1.25v-15.27c0-.69-.56-1.25-1.25-1.25ZM63.43,103.06h-17.86v-12.77h17.86v12.77Z"></path>
    <path
        d="M75.9,105.57h20.36c.69,0,1.25-.56,1.25-1.25v-15.27c0-.69-.56-1.25-1.25-1.25h-20.36c-.69,0-1.25.56-1.25,1.25v15.27c0,.69.56,1.25,1.25,1.25ZM77.15,90.3h17.86v12.77h-17.86v-12.77Z"></path>
</svg>