<svg xmlns="http://www.w3.org/2000/svg" fill="currentcolor" viewBox="0 0 171.47 99.68">
    <path
        d="M20.07,38.9h30.6c.66,0,1.19-.53,1.19-1.19V1.19c0-.66-.53-1.19-1.19-1.19h-30.6c-.66,0-1.19.53-1.19,1.19v36.52c0,.66.53,1.19,1.19,1.19ZM21.26,2.38h28.22v34.13h-28.22V2.38Z"></path>
    <path
        d="M34.18,47.46v16.81c0,.66.53,1.19,1.19,1.19s1.19-.53,1.19-1.19v-16.81c0-.66-.53-1.19-1.19-1.19s-1.19.53-1.19,1.19Z"></path>
    <path
        d="M70.44,38.9h30.6c.66,0,1.19-.53,1.19-1.19V1.19c0-.66-.53-1.19-1.19-1.19h-30.6c-.66,0-1.19.53-1.19,1.19v36.52c0,.66.53,1.19,1.19,1.19ZM71.63,2.38h28.22v34.13h-28.22V2.38Z"></path>
    <path
        d="M84.55,47.46v16.81c0,.66.53,1.19,1.19,1.19s1.19-.53,1.19-1.19v-16.81c0-.66-.53-1.19-1.19-1.19s-1.19.53-1.19,1.19Z"></path>
    <path
        d="M120.8,38.9h30.6c.66,0,1.19-.53,1.19-1.19V1.19c0-.66-.53-1.19-1.19-1.19h-30.6c-.66,0-1.19.53-1.19,1.19v36.52c0,.66.53,1.19,1.19,1.19ZM122,2.38h28.22v34.13h-28.22V2.38Z"></path>
    <path
        d="M134.91,47.46v16.81c0,.66.53,1.19,1.19,1.19s1.19-.53,1.19-1.19v-16.81c0-.66-.53-1.19-1.19-1.19s-1.19.53-1.19,1.19Z"></path>
    <path
        d="M170.29,84.65h-20.42c-.61-7.06-6.54-12.63-13.76-12.63s-13.15,5.56-13.76,12.63h-22.84c-.61-7.06-6.54-12.63-13.76-12.63s-13.15,5.56-13.76,12.63h-22.84c-.61-7.06-6.54-12.63-13.76-12.63s-13.15,5.56-13.76,12.63H1.19c-.66,0-1.19.53-1.19,1.19s.53,1.19,1.19,1.19h20.42c.61,7.07,6.54,12.63,13.76,12.63s13.16-5.57,13.76-12.63h22.84c.61,7.07,6.54,12.63,13.76,12.63s13.16-5.57,13.76-12.63h22.84c.61,7.07,6.54,12.63,13.76,12.63s13.16-5.57,13.76-12.63h20.42c.66,0,1.19-.53,1.19-1.19s-.53-1.19-1.19-1.19ZM35.37,97.28c-6.31,0-11.44-5.13-11.44-11.44s5.13-11.44,11.44-11.44,11.44,5.13,11.44,11.44-5.13,11.44-11.44,11.44ZM85.74,97.28c-6.31,0-11.44-5.13-11.44-11.44s5.13-11.44,11.44-11.44,11.44,5.13,11.44,11.44-5.13,11.44-11.44,11.44ZM136.11,97.28c-6.31,0-11.44-5.13-11.44-11.44,0,0,0,0,0,0,0,0,0,0,0,0,0-6.3,5.13-11.43,11.44-11.43s11.43,5.13,11.44,11.43c0,0,0,0,0,0,0,0,0,0,0,0,0,6.31-5.13,11.43-11.44,11.43Z"></path>
</svg>