<svg xmlns="http://www.w3.org/2000/svg"  viewBox="0 0 283.27 307.28" fill="currentcolor">
    <path
        d="M283.27,11.75c.03-3.46-1.45-6.72-4.08-8.97-2.63-2.24-6.09-3.2-9.5-2.62-13.52,2.3-40.8,8.09-71.54,21.01-17.35,7.29-33.47,15.89-47.89,25.56-17.29,11.59-32.37,24.88-44.83,39.49-8.53,10-16.28,21.16-23.08,33.22-12,1.37-23.51,4.81-34.27,10.26-11.98,6.06-22.51,14.36-31.3,24.67-6.51,7.63-11.82,16.12-15.8,25.22-1.81,4.15-1.08,8.83,1.91,12.22.38.43.78.82,1.2,1.18,2.94,2.5,6.9,3.37,10.7,2.25,13.29-3.9,27.37-4.72,40.99-2.43.51,2.83,1.98,5.43,4.19,7.31.65.55,1.36,1.04,2.12,1.46l-7.75,9.09c-4,4.69-3.44,11.76,1.25,15.77l38.07,32.46c4.69,4,11.77,3.44,15.77-1.25l7.75-9.09c2.35,3.05,5.94,4.78,9.65,4.85,4.42,13.09,5.83,27.13,4.08,40.87-.5,3.93.98,7.71,3.92,10.21.42.36.88.69,1.36,1,3.82,2.41,8.56,2.39,12.37-.05,8.36-5.37,15.9-11.95,22.41-19.58,8.78-10.3,15.31-22.01,19.41-34.8,3.68-11.49,5.26-23.4,4.71-35.46,10.83-8.62,20.63-18.04,29.16-28.04,12.46-14.61,23.2-31.61,31.91-50.51,7.27-15.77,13.21-33.04,17.67-51.32,7.89-32.4,9.3-60.25,9.44-73.96h0ZM61.64,167.44c-.07.21-.13.42-.2.63-.14.45-.28.9-.42,1.35-.07.24-.15.48-.22.72-.14.45-.28.9-.41,1.35-.06.21-.13.42-.19.64-.2.65-.39,1.3-.58,1.95-.02.08-.05.16-.07.24-.17.58-.34,1.17-.51,1.75-.06.22-.12.44-.19.66-.13.46-.26.92-.39,1.39-.06.23-.13.46-.19.68-.14.5-.28,1.01-.42,1.52-.05.17-.09.34-.14.51-.17.63-.34,1.27-.51,1.9-15.05-2.49-30.61-1.56-45.28,2.74-.68.2-1.13-.1-1.38-.39-.25-.28-.49-.76-.21-1.4,3.57-8.19,8.35-15.82,14.21-22.69,13.52-15.86,31.69-26.42,51.88-30.32-.04.09-.08.17-.13.26-.1.2-.19.39-.29.59-.19.39-.38.79-.57,1.18-.1.21-.2.41-.3.62-.2.43-.41.85-.61,1.28-.08.16-.15.32-.23.48-.27.58-.54,1.15-.81,1.73-.07.16-.15.32-.22.48-.2.43-.39.86-.59,1.3-.1.22-.2.43-.29.65-.18.39-.35.79-.52,1.18-.09.21-.19.43-.28.64-.21.47-.41.95-.62,1.42-.06.13-.11.25-.17.38-.25.59-.5,1.18-.75,1.77-.09.21-.17.41-.26.62-.17.41-.34.81-.51,1.22-.1.23-.19.47-.29.7-.16.4-.33.81-.49,1.21-.09.22-.17.43-.26.65-.24.6-.48,1.2-.71,1.8-.05.12-.09.24-.14.36-.19.5-.39.99-.58,1.49-.09.23-.17.46-.26.69-.15.4-.3.8-.45,1.21-.09.24-.18.48-.27.72-.16.43-.32.86-.48,1.3-.07.2-.15.4-.22.59-.22.61-.44,1.22-.66,1.84-.07.19-.13.37-.2.56-.16.45-.32.9-.47,1.35-.08.24-.17.48-.25.72-.14.42-.28.83-.43,1.25-.08.24-.16.47-.24.71-.17.5-.34,1.01-.5,1.51-.05.14-.09.28-.14.42-.21.63-.41,1.27-.62,1.9ZM101.68,251.03c-.35.41-.98.46-1.39.11l-38.07-32.46c-.41-.35-.46-.98-.11-1.39l9.34-10.95c.36.2.72.41,1.08.61.1.05.19.11.29.16.5.29,1.01.58,1.51.88.15.09.29.18.44.27.35.21.71.43,1.06.64.19.11.37.23.56.35.31.19.63.39.94.59.2.12.4.25.59.38.3.19.61.39.91.59.2.13.39.25.59.38.31.21.62.41.93.62.18.12.36.24.54.36.35.24.71.48,1.06.73.13.09.27.18.4.28.49.34.97.68,1.45,1.03.1.07.19.14.29.21.38.28.77.55,1.15.84.17.12.34.25.51.38.31.23.62.46.93.7.19.14.37.28.55.42.29.22.59.45.88.68.19.15.37.29.56.44.29.23.59.46.88.7.18.14.36.28.53.43.32.26.63.51.95.77.15.12.3.25.45.37.46.38.92.77,1.38,1.16.46.39.91.78,1.36,1.18.15.13.29.26.44.39.31.27.61.54.91.81.17.15.34.31.51.46.28.25.55.5.83.76.17.16.35.32.52.48.27.25.54.5.81.76.17.16.34.32.51.48.28.27.56.54.83.81.15.15.3.29.45.44.34.33.67.67,1.01,1,.09.09.17.17.26.26.42.42.83.84,1.24,1.27.11.12.23.24.34.36.3.31.59.62.88.93.15.16.3.32.45.48.25.27.51.55.76.82.16.17.31.35.47.52.24.27.48.54.72.81.16.18.31.35.47.53.24.28.48.55.73.83.14.17.29.33.43.5.27.31.53.63.8.94.11.13.23.27.34.4.37.45.74.9,1.11,1.35.07.09.15.18.22.27.26.32.51.64.76.96l-9.34,10.95ZM163.22,279.24c-5.85,6.87-12.64,12.79-20.16,17.62-.59.38-1.09.22-1.42.01-.32-.2-.69-.6-.6-1.3,1.93-15.17.39-30.68-4.45-45.15.59-.26,1.18-.52,1.77-.79.19-.09.39-.17.58-.26.44-.2.89-.4,1.33-.6.24-.11.47-.22.71-.32.41-.19.83-.38,1.24-.57.22-.1.45-.21.67-.31.52-.24,1.04-.49,1.56-.74.1-.05.21-.1.31-.15.61-.29,1.21-.58,1.82-.87.21-.1.42-.21.63-.31.41-.2.82-.4,1.23-.6.23-.11.46-.23.69-.34.41-.21.83-.41,1.24-.62.2-.1.41-.2.61-.31.59-.3,1.19-.6,1.78-.91.13-.07.26-.14.39-.2.47-.24.94-.49,1.41-.73.22-.12.44-.23.66-.35.39-.2.78-.41,1.16-.62.22-.12.45-.24.67-.36.42-.23.85-.46,1.27-.68.17-.09.34-.19.51-.28.57-.31,1.15-.63,1.72-.95.18-.1.36-.2.54-.3.41-.23.81-.46,1.22-.68.22-.12.44-.25.66-.37.38-.21.75-.43,1.13-.65.21-.12.42-.24.63-.36.47-.27.94-.55,1.41-.82.1-.06.21-.12.31-.18.56-.33,1.11-.66,1.67-.99.2-.12.39-.23.58-.35.38-.23.76-.46,1.13-.68.21-.13.42-.26.63-.39.38-.23.76-.47,1.14-.7.18-.11.37-.23.55-.34.55-.34,1.09-.68,1.63-1.02.11-.07.22-.14.33-.21.44-.28.88-.56,1.32-.85.19-.13.39-.25.58-.38.37-.24.73-.47,1.09-.71.2-.13.39-.26.59-.39.4-.26.8-.53,1.2-.79.14-.1.29-.19.43-.29.53-.36,1.06-.71,1.58-1.07.15-.1.29-.2.44-.3.39-.27.78-.54,1.17-.81.19-.13.37-.26.56-.39.36-.25.72-.5,1.08-.76.18-.12.35-.25.53-.37.08-.06.16-.11.24-.17-.66,20.56-8.22,40.16-21.74,56.02ZM263.92,83.3c-9.51,39.03-25.47,71.88-47.43,97.63-8.63,10.12-18.64,19.63-29.77,28.27-2.11,1.64-4.26,3.25-6.46,4.83-3.21,2.31-6.51,4.56-9.9,6.75-.78.5-1.55,1-2.34,1.49-.74.47-1.48.93-2.23,1.39-2.44,1.5-4.92,2.97-7.45,4.41-.58.33-1.16.66-1.74.98-3.32,1.86-6.71,3.67-10.16,5.42-5.9,2.99-11.99,5.81-18.27,8.46l-.25.11c-1,.42-2.16.07-2.76-.83-.37-.55-.75-1.11-1.15-1.68l.04-.05-2.41-3.26c-6.33-8.56-13.79-16.53-22.19-23.69-4.72-4.03-9.65-7.72-14.74-11.06-3.96-2.59-8.02-4.97-12.15-7.11l-3.6-1.86-.04.05c-.62-.3-1.23-.59-1.84-.87-.98-.45-1.51-1.54-1.26-2.6l.05-.21v-.04c5.71-23.16,13.8-44.41,24.08-63.14,6.77-12.35,14.58-23.74,23.21-33.86,21.96-25.76,51.88-46.71,88.91-62.26,29.8-12.52,56.21-18.13,69.3-20.36.57-.1.98.16,1.17.32.19.16.51.52.5,1.1-.13,13.28-1.5,40.24-9.15,71.65Z" />
    <path
        d="M207.82,86.49c-15.19-12.95-38.08-11.13-51.03,4.06-12.95,15.19-11.13,38.08,4.06,51.03,15.19,12.95,38.08,11.13,51.03-4.06,12.95-15.19,11.13-38.08-4.06-51.03ZM204.11,130.9c-9.3,10.91-25.74,12.22-36.65,2.91s-12.22-25.74-2.91-36.65,25.74-12.22,36.65-2.91c10.91,9.3,12.22,25.74,2.91,36.65Z" />
    <path
        d="M29.78,262.25l18.26-21.42c1.83-2.14,1.57-5.36-.57-7.19-2.14-1.83-5.36-1.57-7.19.57l-18.26,21.42c-1.83,2.14-1.57,5.36.57,7.19,2.14,1.83,5.36,1.57,7.19-.57Z" />
    <path
        d="M67.66,250.85c-2.14-1.83-5.36-1.57-7.19.57l-35.99,42.21c-1.83,2.14-1.57,5.36.57,7.19,2.14,1.83,5.36,1.57,7.19-.57l35.99-42.21c1.83-2.14,1.57-5.36-.57-7.19Z" />
    <path
        d="M80.67,268.64l-18.26,21.42c-1.83,2.14-1.57,5.36.57,7.19,2.14,1.83,5.36,1.57,7.19-.57l18.26-21.42c1.83-2.14,1.57-5.36-.57-7.19-2.14-1.83-5.36-1.57-7.19.57Z" />
</svg>