<svg xmlns="http://www.w3.org/2000/svg" viewBox="0 0 37.46 37.33" fill="currentcolor">
    <path
        d="M36.5,37.33c-.13,0-.2-.04-.24-.07-.3-.21-.59-.51-.9-.82l-.27-.27-1.54-1.53c-.36-.36-.73-.72-1.1-1.08-.64-.62-1.3-1.27-1.9-1.92-.84-.87-1.69-1.71-2.52-2.52-.98-.96-1.99-1.95-2.92-2.94l-.81-.85-.85.81c-1.36,1.3-4.78,2.6-6.93,2.89-.65.09-1.31.13-1.96.13-6.36,0-11.94-4.08-13.87-10.16C-.63,14.89-.02,10.4,2.35,6.69,4.68,3.04,8.42.65,12.6.13c.18-.02.36-.04.54-.05.21-.02.41-.04.62-.06.21,0,.41,0,.61,0,2.6,0,4.65.48,6.84,1.61,4.39,2.27,7.5,6.8,7.91,11.54.32,3.65-.82,7.71-2.82,10.1l-.73.87.85.75c.38.34.75.7,1.13,1.09l.28.28,5.33,5.27.66.65c1.03,1,2.09,2.04,3.1,3.09.34.35.7.88.47,1.42-.17.4-.59.64-.89.64ZM14.15,1.93c-3.85.27-6.74,1.66-9.09,4.37-3.02,3.49-3.92,8.14-2.4,12.44,1.52,4.32,5.16,7.39,9.74,8.21.73.13,1.43.2,2.07.2.19,0,.37,0,.55-.02,3.36-.11,6.5-1.53,8.81-4,2.29-2.44,3.48-5.63,3.37-8.97-.24-6.87-5.85-12.25-12.76-12.25h-.29Z" />
</svg>