<svg xmlns="http://www.w3.org/2000/svg" viewBox="0 0 34.57 34.57" fill="currentcolor">
    <path class="cls-1"
        d="M15.01,22.02c-.15,0-.3-.06-.41-.17l-4.4-4.4c-.23-.23-.23-.59,0-.82.11-.11.26-.17.41-.17s.3.06.41.17l3.99,3.99,10.03-10.03c.11-.11.26-.17.41-.17s.3.06.41.17c.11.11.17.26.17.41s-.06.3-.17.41l-10.44,10.44c-.11.11-.26.17-.41.17Z" />
    <path class="cls-1"
        d="M17.28,0C7.75,0,0,7.75,0,17.28s7.75,17.28,17.28,17.28,17.28-7.75,17.28-17.28S26.82,0,17.28,0ZM17.28,33.19c-8.77,0-15.91-7.14-15.91-15.91S8.51,1.38,17.28,1.38s15.91,7.14,15.91,15.91-7.14,15.91-15.91,15.91Z" />
</svg>