<svg xmlns="http://www.w3.org/2000/svg" fill="currentcolor" viewBox="-0.03 -0.03 134.8 134.8">
    <path
        d="M73.86,33.17c-1.31.78-2.22,2.04-2.56,3.53-.34,1.49-.06,3.01.79,4.29l18.78,28.29c.36.55,1.1.7,1.65.33.55-.36.7-1.1.33-1.65l-18.78-28.29c-.48-.73-.64-1.59-.45-2.44.19-.85.71-1.56,1.46-2.01,1.42-.85,3.27-.45,4.21.91l7,10.1c.5.72,1.4,1.03,2.24.77.84-.26,1.4-1.03,1.4-1.91V11.88c0-2.03,1.65-3.68,3.68-3.68s3.68,1.65,3.68,3.68v19.4c0,.66.53,1.19,1.19,1.19s1.19-.53,1.19-1.19V5.86c0-1.92,1.56-3.48,3.48-3.48s3.48,1.56,3.48,3.48v25.62c0,.66.53,1.19,1.19,1.19s1.19-.53,1.19-1.19V10.32c0-2.43,1.98-4.41,4.41-4.41s4.41,1.98,4.41,4.41v20.96c0,.66.53,1.19,1.19,1.19s1.19-.53,1.19-1.19v-14.52c0-1.75,1.42-3.16,3.16-3.16s3.16,1.42,3.16,3.16v27.42c0,5.51-1.22,11.06-3.52,16.07-2.45,5.31-3.74,11.21-3.74,17.06v3.35c0,.66.53,1.19,1.19,1.19s1.19-.53,1.19-1.19v-3.35c0-5.51,1.22-11.06,3.52-16.07,2.45-5.31,3.74-11.21,3.74-17.06v-27.42c0-3.06-2.49-5.55-5.55-5.55-1.18,0-2.27.37-3.16.99v-1.88c0-3.75-3.05-6.79-6.79-6.79-1.7,0-3.26.63-4.45,1.66-.33-2.92-2.82-5.19-5.82-5.19-3.23,0-5.86,2.63-5.86,5.86v1.2c-1.02-.78-2.3-1.25-3.68-1.25-3.35,0-6.07,2.72-6.07,6.07v31.98l-6.3-9.09c-1.65-2.39-4.9-3.09-7.4-1.6Z"></path>
    <path
        d="M7.06,37.45c-.78,1.02-1.25,2.3-1.25,3.68,0,3.35,2.72,6.07,6.07,6.07h31.98l-9.09,6.3c-2.39,1.66-3.09,4.9-1.6,7.4.79,1.31,2.04,2.22,3.53,2.56.41.09.83.14,1.24.14,1.08,0,2.13-.32,3.05-.93l28.29-18.78c.55-.36.7-1.1.33-1.65-.36-.55-1.1-.7-1.65-.33l-28.29,18.78c-.73.48-1.59.64-2.44.45-.85-.19-1.56-.71-2.01-1.46-.85-1.42-.45-3.27.91-4.21l10.1-7c.72-.5,1.03-1.4.77-2.24s-1.03-1.4-1.91-1.4H11.88c-2.03,0-3.68-1.65-3.68-3.68s1.65-3.68,3.68-3.68h19.4c.66,0,1.19-.53,1.19-1.19s-.53-1.19-1.19-1.19H5.86c-1.92,0-3.48-1.56-3.48-3.48s1.56-3.48,3.48-3.48h25.62c.66,0,1.19-.53,1.19-1.19s-.53-1.19-1.19-1.19H10.32c-2.43,0-4.41-1.98-4.41-4.41s1.98-4.41,4.41-4.41h20.96c.66,0,1.19-.53,1.19-1.19s-.53-1.19-1.19-1.19h-14.52c-1.75,0-3.16-1.42-3.16-3.16s1.42-3.16,3.16-3.16h27.42c5.51,0,11.06,1.22,16.07,3.52,5.31,2.45,11.21,3.74,17.06,3.74h3.35c.66,0,1.19-.53,1.19-1.19s-.53-1.19-1.19-1.19h-3.35c-5.51,0-11.06-1.22-16.07-3.52-5.31-2.45-11.21-3.74-17.06-3.74h-27.42c-3.06,0-5.55,2.49-5.55,5.55,0,1.18.37,2.27.99,3.16h-1.88c-3.75,0-6.79,3.05-6.79,6.79,0,1.7.63,3.26,1.66,4.45-2.92.33-5.19,2.82-5.19,5.82,0,3.23,2.63,5.86,5.86,5.86h1.2Z"></path>
    <path
        d="M60.9,101.59c1.31-.78,2.22-2.04,2.56-3.53.34-1.49.06-3.02-.79-4.29l-18.78-28.29c-.36-.55-1.1-.7-1.65-.33-.55.36-.7,1.1-.33,1.65l18.78,28.29c.48.73.64,1.59.45,2.44-.19.85-.71,1.56-1.46,2.01-1.42.85-3.27.45-4.21-.91l-7-10.1c-.5-.72-1.4-1.03-2.24-.77-.84.26-1.4,1.03-1.4,1.91v33.21c0,2.03-1.65,3.68-3.68,3.68s-3.68-1.65-3.68-3.68v-19.4c0-.66-.53-1.19-1.19-1.19s-1.19.53-1.19,1.19v25.42c0,1.92-1.56,3.48-3.48,3.48s-3.48-1.56-3.48-3.48v-25.62c0-.66-.53-1.19-1.19-1.19s-1.19.53-1.19,1.19v21.16c0,2.43-1.98,4.41-4.41,4.41s-4.41-1.98-4.41-4.41v-20.96c0-.66-.53-1.19-1.19-1.19s-1.19.53-1.19,1.19v14.52c0,1.75-1.42,3.16-3.16,3.16s-3.16-1.42-3.16-3.16v-27.42c0-5.51,1.22-11.06,3.52-16.07,2.45-5.31,3.74-11.21,3.74-17.06v-3.35c0-.66-.53-1.19-1.19-1.19s-1.19.53-1.19,1.19v3.35c0,5.51-1.22,11.06-3.52,16.07-2.45,5.31-3.74,11.21-3.74,17.06v27.42c0,3.06,2.49,5.55,5.55,5.55,1.18,0,2.27-.37,3.16-.99v1.88c0,3.75,3.05,6.79,6.79,6.79,1.7,0,3.26-.63,4.45-1.66.33,2.92,2.82,5.19,5.82,5.19,3.23,0,5.86-2.63,5.86-5.86v-1.2c1.02.78,2.3,1.25,3.68,1.25,3.35,0,6.07-2.72,6.07-6.07v-31.98l6.3,9.09c1.65,2.39,4.9,3.09,7.4,1.6Z"></path>
    <path
        d="M134.76,103.17c0-3.23-2.63-5.86-5.86-5.86h-1.2c.78-1.02,1.25-2.3,1.25-3.68,0-3.35-2.72-6.07-6.07-6.07h-31.98l9.09-6.3c2.39-1.66,3.09-4.9,1.6-7.4-.79-1.31-2.04-2.22-3.53-2.56-1.49-.34-3.01-.06-4.29.79l-28.29,18.78c-.55.36-.7,1.1-.33,1.65.36.55,1.1.7,1.65.33l28.29-18.78c.73-.48,1.59-.64,2.44-.45.85.19,1.56.71,2.01,1.46.85,1.42.45,3.27-.91,4.21l-10.1,7c-.72.5-1.03,1.4-.77,2.24.26.84,1.03,1.4,1.91,1.4h33.21c2.03,0,3.68,1.65,3.68,3.68s-1.65,3.68-3.68,3.68h-19.4c-.66,0-1.19.53-1.19,1.19s.53,1.19,1.19,1.19h25.42c1.92,0,3.48,1.56,3.48,3.48s-1.56,3.48-3.48,3.48h-25.62c-.66,0-1.19.53-1.19,1.19s.53,1.19,1.19,1.19h21.16c2.43,0,4.41,1.98,4.41,4.41s-1.98,4.41-4.41,4.41h-20.96c-.66,0-1.19.53-1.19,1.19s.53,1.19,1.19,1.19h14.52c1.74,0,3.16,1.42,3.16,3.16s-1.42,3.16-3.16,3.16h-27.42c-5.51,0-11.06-1.22-16.07-3.52-5.31-2.45-11.21-3.74-17.06-3.74h-3.35c-.66,0-1.19.53-1.19,1.19s.53,1.19,1.19,1.19h3.35c5.51,0,11.06,1.22,16.07,3.52,5.31,2.45,11.21,3.74,17.06,3.74h27.42c3.06,0,5.55-2.49,5.55-5.55,0-1.18-.37-2.27-.99-3.16h1.88c3.75,0,6.79-3.05,6.79-6.79,0-1.7-.63-3.26-1.66-4.45,2.92-.33,5.19-2.82,5.19-5.82Z"></path>
</svg>