<svg xmlns="http://www.w3.org/2000/svg" viewBox="0 0 255.7 260">
<path fill="CurrentColor" d="M238.5,147.3v-29.9c0-2.5-2.1-4.6-4.6-4.6h-10.6l-0.2-2.6c-2.5-27.4-19.1-52.1-43.5-64.5l-1.6-0.8v-3.3
	c0-10.7-8.9-19.5-19.8-19.5h-10.5v-2.9c0-6.6-5.5-12-12.2-12h-15.2c-6.8,0-12.2,5.4-12.2,12v2.9H97.6c-10.9,0-19.8,8.7-19.8,19.5V45
	l-1.6,0.8c-24.4,12.4-41.1,37.1-43.5,64.5l-0.2,2.6H21.8c-2.5,0-4.7,2.1-4.7,4.6v29.9c0,1.8,1.1,3.4,2.7,4.2l3.1,1.3l-1.8,2.8
	c-2.7,4.3-4,9.2-4,14.1c0,14.9,12.3,27,27.4,27h5.3l0.6,2.1c9.8,34,41.6,57.7,77.4,57.7s67.6-23.7,77.4-57.7l0.6-2.1h5.3
	c15.1,0,27.4-12.1,27.4-27c0-4.9-1.4-9.8-4-14.1l-1.8-2.8l3.1-1.3C237.5,150.7,238.5,149.1,238.5,147.3z M42,109.6
	C44.4,89,56,69.7,73.2,58.2l4.6-3.1v16.5c0,2.5,2,4.6,4.6,4.6s4.6-2,4.6-4.6V41.7c0-5.7,4.7-10.3,10.5-10.3H108v25.3
	c0,2.5,2.1,4.5,4.7,4.5c2.5,0,4.6-2,4.6-4.5V16.4h21v40.3c0,2.5,2.1,4.5,4.6,4.5c2.6,0,4.7-2,4.7-4.5V31.4h10.5
	c5.8,0,10.5,4.6,10.5,10.3v29.9c0,2.5,2.1,4.6,4.7,4.6c2.6,0,4.6-2,4.6-4.6V55.1l4.6,3.1c17.2,11.5,28.8,30.8,31.2,51.4l0.3,3.2
	H41.7L42,109.6z M47.8,187.6h-3.2c-10,0-18.1-8-18.1-17.9c0-9.9,8.1-17.8,18.1-17.8h2.9v25.3c0,2.4,0.1,4.8,0.3,7.2L47.8,187.6z
	 M199,177.2c0,38.7-31.9,70.2-71.1,70.2c-39.2,0-71.1-31.5-71.1-70.2v-25.3H199V177.2z M26.4,142.7v-20.8h202.7v20.8H26.4z
	 M210.8,187.6h-3.2l0.3-3.2c0.2-2.4,0.3-4.8,0.3-7.2v-25.3h2.9c10,0,18.1,8,18.1,17.8C229.3,179.5,221.1,187.6,210.8,187.6z"></path>
</svg>