<svg xmlns="http://www.w3.org/2000/svg" viewBox="0 0 255.7 260" fill="CurrentColor">
<g>
	<path d="M127.8,0c-45.3,0-82,36.7-82,82c0,24.2,11.8,46.1,24.9,65.7c19,28.6,38,57.1,56.3,86.3c0.1,0.1,0.8,1.1,0.8,1.3
		c0-0.2,0.8-1.2,0.8-1.3c18.2-29.1,37.2-57.6,56.3-86.3C198,128,209.8,106.2,209.8,82C209.8,36.7,173.1,0,127.8,0z M127.8,124
		c-23.5,0-42.5-19-42.5-42.5c0-23.5,19-42.5,42.5-42.5s42.5,19,42.5,42.5C170.4,105,151.3,124,127.8,124z"></path>
	<g>
		<path d="M127.8,260c-14.2,0-27.7-2.3-37.9-6.3c-11.4-4.6-17.6-11.1-17.6-18.4c0-3.9,1.8-9.7,10.6-15c5.9-3.6,14.1-6.3,23.7-8
			l1.4,8.1c-18,3.2-27.5,9.9-27.5,14.9c0,3.6,4.7,7.7,12.5,10.8c9.2,3.7,21.6,5.8,34.8,5.8s25.6-2,34.8-5.8
			c7.8-3.1,12.5-7.2,12.5-10.8c0-5.1-9.6-11.9-28-15l1.4-8.1c9.7,1.6,18,4.4,24,8c8.9,5.3,10.8,11.1,10.8,15.1
			c0,7.3-6.3,13.9-17.6,18.4C155.5,257.7,142.1,260,127.8,260z"></path>
	</g>
</g>
</svg>