<svg xmlns="http://www.w3.org/2000/svg" viewBox="0 0 255.7 260">
<path fill="CurrentColor" class="st0" d="M234.8,127.3c-0.8-0.4-1.6-0.7-2.4-0.7c-1.6,0-3.2,0.9-4,2.3c-6.5,10.9-14.6,20.6-24.2,28.8l-2.4,2.1l-1.8-2.7
	c-0.1-0.2-0.1-0.2-4.9-9.1C185.4,130,156,75,154.6,72.8l-0.4-0.4l-0.2-0.5c-1.1-3.9-3.1-7.4-5.7-10.3l-0.8-0.8V26.3
	c0-10.7-8.8-19.4-19.7-19.4c-10.9,0-19.8,8.7-19.8,19.4v34.4l-0.7,0.8c-2.8,3.3-4.8,6.9-5.9,10.9l-0.1,0.4l-0.2,0.3
	c-1.1,2-38.6,71.8-45,84l-1.7,3.2l-2.8-2.3c-9.8-8.4-18-18.2-24.4-29c-0.8-1.4-2.4-2.3-4-2.3c-0.8,0-1.6,0.3-2.4,0.7
	c-1,0.6-1.8,1.5-2.1,2.7c-0.3,1.1-0.1,2.3,0.5,3.4c7.5,12.8,17.2,24,28.9,33.5l1.8,1.5l-1.1,2.1c-2.9,5.5-3.3,6.2-3.4,6.6
	c-0.2,0.3-0.2,0.3-1.9,3.5l-3.7,6.6c-3.1,5.5-3.3,12.3-0.4,18l15.1,29.6l-6.8,13c-0.5,1.1-0.7,2.3-0.3,3.5c0.4,1.1,1.2,2.1,2.3,2.6
	c0.7,0.4,1.4,0.5,2.2,0.5c1.7,0,3.3-0.9,4.1-2.4L89,189l2.3,0.7c4.6,1.4,9.5,2.6,15.1,3.5l1.8,0.3l0.5,1.8
	c2.3,8.6,10.1,14.5,19.2,14.5c9.1,0,16.9-6,19.2-14.5l0.4-1.8l1.8-0.3c5.5-0.9,10.4-2.1,15.2-3.5l2.3-0.7l32.8,62.9
	c0.8,1.5,2.4,2.5,4.2,2.5c0.8,0,1.5-0.2,2.2-0.5c1.1-0.5,1.9-1.5,2.3-2.6c0.4-1.1,0.3-2.4-0.3-3.5l-6.8-13l15.2-29.8
	c2.9-5.7,2.8-12.4-0.3-18l-4.4-7.9c-0.9-1.6-0.9-1.6-1.1-2.1c-0.3-0.5-0.9-1.6-3.5-6.6l-1.1-2.1l1.8-1.5
	c11.6-9.5,21.3-20.8,28.8-33.4c0.6-1,0.8-2.2,0.4-3.4C236.7,128.9,235.9,127.9,234.8,127.3z M117.4,26.3c0-5.7,4.7-10.3,10.4-10.3
	c5.7,0,10.4,4.6,10.4,10.3v27.9l-3.6-0.9c-2.2-0.6-4.5-0.9-6.8-0.9c-2.3,0-4.6,0.3-6.8,0.9l-3.6,0.9V26.3z M127.8,61.5
	c9.9,0,18,8,18,17.7c0,9.8-8,17.8-18,17.8c-9.9,0-18-8-18-17.8C109.9,69.5,117.9,61.5,127.8,61.5z M59.9,224.7l-11.9-23.5
	c-1.6-3-1.5-6.7,0.1-9.7c4.2-7.6,5.4-9.7,5.8-10.4c0.4-0.8,1-2,2.3-4.4l1.5-2.7l2.6,1.6c5.2,3.3,11,6.3,17.1,9l2.8,1.2L59.9,224.7z
	 M84.4,177.7l-2.5-1c-6.2-2.7-12.2-5.9-17.8-9.4l-2.2-1.5l2.6-4.8c6.7-12.6,17.7-33.3,35.7-66.7l2.2-4.2l2.7,4
	c3.3,4.8,8.2,8.5,13.7,10.4l3.1,1.1L84.4,177.7z M127.8,200.8c-5.8,0-10.4-4.6-10.4-10.3c0-5.7,4.7-10.3,10.4-10.3
	c5.7,0,10.4,4.6,10.4,10.3C138.3,196.2,133.6,200.8,127.8,200.8z M159,181.8c-3.1,0.9-6.5,1.6-10.1,2.3l-2.2,0.4l-1-2.1
	c-3.1-6.8-10.2-11.3-18-11.3c-7.7,0-14.8,4.5-18,11.3l-0.9,2l-2.2-0.4c-3.7-0.7-6.9-1.4-10.1-2.3l-3.4-0.9l34.6-66.4l34.6,66.4
	L159,181.8z M171.3,177.7l-37.6-72.1l3.1-1.1c5.6-2,10.6-5.7,13.8-10.6l2.7-4l40.6,75.7l-2.2,1.5c-5.8,3.7-11.8,6.9-18,9.6
	L171.3,177.7z M207.8,191.3c1.7,3,1.7,6.6,0.2,9.6l-12.2,23.8l-20.3-38.8l2.9-1.2c6-2.6,11.8-5.7,17.3-9.2l2.6-1.7l1.5,2.8
	c1.2,2.3,2,3.7,2.4,4.7v-0.1L207.8,191.3z"></path>
</svg>