<svg xmlns="http://www.w3.org/2000/svg" viewBox="0 0 255.7 260">
<g fill="CurrentColor">
	<path d="M163.3,126.6c-0.1-3.1-2.6-5.6-5.7-5.6c-3.1,0.1-5.6,2.6-5.6,5.7l1.1,117.1h-19l-0.2-62.2
		c0-3.1-2.5-5.6-5.6-5.6c-3.1,0-5.6,2.5-5.6,5.6l0.2,62.2h-18.2l-1.1-116.6c0-3.1-2.5-5.6-5.7-5.6c-1.5,0.1-2.9,0.6-4,1.7
		c-1,1-1.7,2.5-1.6,4l0.4,44.4c0.1,3.7-2.9,6.7-6.6,6.7l-5,0.1c-1.9,0-3.5-1.5-3.5-3.5l-0.6-56.9c-0.1-8.4,3.1-16.2,9-22.2
		c5.8-5.9,13.7-9.2,22-9.3l39-0.4c17,0,31,13.9,31.2,30.9l0.5,56.9c0.1,0.9-0.3,1.8-1,2.5c-0.7,0.7-1.5,1-2.5,1l-4.8,0.1
		c-3.8-0.1-6.8-3-6.8-6.6L163.3,126.6z M175.5,188.8c8.1-0.1,14.7-6.8,14.6-14.9l-0.6-56.9c-0.2-23.2-19.3-42-42.4-42L108,75.3
		C96.6,75.4,86,80,78.1,88s-12.3,18.8-12.2,30.2l0.6,56.9c0.1,8,6.7,14.6,14.9,14.6l5-0.1c2.3,0,4.5-0.5,6.6-1.4l0.7,66.9l33.7-0.1
		c0.3,0.1,0.7,0.2,1.2,0.2h0.1c0.4,0,0.8-0.1,1.1-0.2h34.8l-0.7-67.5c2.1,0.8,4.3,1.3,6.7,1.3L175.5,188.8z"></path>
	<path d="M128,15.4c12.2,0,22.1,9.9,22.1,22.1c0,12.2-9.9,22.1-22.1,22.1s-22.1-9.9-22.1-22.1
		C105.9,25.3,115.8,15.4,128,15.4 M128,70.7c18.4,0,33.3-14.9,33.3-33.3S146.4,4.1,128,4.1S94.7,19.1,94.7,37.4S109.6,70.7,128,70.7
		"></path>
	<path d="M253.1,143.3c-0.1-9.4-3.9-18.2-10.5-24.8c-6.7-6.5-15.4-10.1-25-10.1l-16.1,0.3c-3.1,0.1-5.6,2.6-5.5,5.7
		c0.1,3,2.6,5.5,5.7,5.5l16.7-0.3c6.1,0,11.9,2.5,16.4,6.9c4.5,4.5,7.1,10.5,7.2,16.8l0.4,45.6c0,0.5-0.2,0.9-0.5,1.2
		c-0.3,0.3-0.8,0.6-1.2,0.6h-4c-1.2,0-2.3-0.4-3-1.2s-1.2-1.8-1.3-3l-0.3-35.6c0-3.1-2.5-5.6-5.7-5.6c-3.1,0.1-5.6,2.6-5.6,5.9
		l0.9,92.6h-13l-0.2-48.8c0-3.1-2.5-5.6-5.6-5.6c-3.1,0-5.6,2.5-5.6,5.7l0.1,48.8h-12.3l-0.1-48.8c0-3.1-2.5-5.6-5.6-5.6
		c-1.5,0-2.9,0.6-4,1.7c-1,1.1-1.6,2.5-1.6,4l0.1,60h28.2c0.2,0.1,0.6,0.2,1,0.2c0.4,0,0.7-0.1,0.7-0.2H233l-0.5-53.7
		c1.4,0.4,2.8,0.6,4.2,0.6l4-0.1c3.5-0.1,6.7-1.4,9.1-3.9c2.4-2.5,3.7-5.7,3.7-9.2L253.1,143.3z"></path>
	<path d="M179.8,81.4c0.3,0.1,0.6,0.1,0.9,0.1c2.8,0,5.1-2,5.6-4.7c1.3-8,8.2-13.9,16.3-13.9c9.2,0,16.6,7.4,16.6,16.6
		S211.8,96,202.6,96c-3.1,0-5.6,2.5-5.6,5.6c0,3.1,2.5,5.6,5.6,5.6c15.4,0,27.9-12.4,27.9-27.8S218,51.6,202.6,51.6
		c-13.7,0-25.3,9.9-27.5,23.4C174.7,78,176.8,80.9,179.8,81.4"></path>
	<path d="M76.5,189.5c-3.1,0-5.6,2.5-5.6,5.6l-0.1,48.8H58.6l0.1-48.8c0-1.5-0.6-2.9-1.7-4s-2.5-1.7-4-1.7
		c-3.1,0-5.6,2.5-5.6,5.6l-0.2,48.8h-13l0.9-92.8c0-1.5-0.6-2.9-1.6-4c-1-1-2.5-1.7-4-1.7c-3.1,0-5.6,2.5-5.6,5.6l-0.3,35.6
		c-0.1,1.1-0.5,2.2-1.3,3c-0.8,0.8-1.9,1.2-3,1.2l-4-0.1c-0.4,0-0.9-0.2-1.2-0.5c-0.3-0.3-0.5-0.8-0.5-1.2l0.4-45.6
		c0.1-13.1,10.8-23.7,24.1-23.7l16.3,0.3c3.1,0,5.5-2.4,5.6-5.6c0.1-3.1-2.4-5.7-5.5-5.7L38,108.4c-19.2,0-35,15.6-35.1,34.8
		l-0.4,45.6c-0.1,3.5,1.3,6.7,3.7,9.2c2.4,2.5,5.7,3.9,9.1,3.9h4.1c1.4,0,2.8-0.2,4.1-0.6L23,255.1h29c0.2,0.1,0.6,0.1,1,0.1
		s0.8-0.1,0.7-0.1h28.5l0.1-60.1C82.1,192,79.6,189.5,76.5,189.5"></path>
	<path d="M53.3,107.3c3.1,0,5.6-2.5,5.6-5.6c0-3.1-2.5-5.6-5.6-5.6c-9.1,0-16.6-7.4-16.6-16.6c0-9.2,7.4-16.6,16.6-16.6
		c8.2,0,15.1,5.9,16.3,13.9c0.4,2.7,2.9,4.7,5.6,4.7c0.3,0,0.6-0.1,0.9-0.1c1.5-0.3,2.8-1,3.7-2.3c0.9-1.3,1.2-2.8,1-4.2
		C78.6,61.5,67,51.6,53.3,51.6c-15.4,0-27.8,12.5-27.8,27.9C25.5,94.8,38,107.3,53.3,107.3"></path>
</g>
</svg>