<svg xmlns="http://www.w3.org/2000/svg" viewBox="0 0 83.71 72.36" fill="currentcolor">
	<rect class="cls-1" y="63.84" width="83.71" height="1.42" />
	<rect class="cls-1" y="49.65" width="8.51" height="1.42" />
	<rect class="cls-1" y="70.94" width="83.71" height="1.42" />
	<rect class="cls-1" y="56.75" width="83.71" height="1.42" />
	<polygon class="cls-1" points="19.32 28.38 0 28.38 0 29.79 19.88 29.79 19.32 28.38" />
	<path class="cls-1"
		d="M36.02,33.58l1.16-2.93h6.11l1.15,2.93h4.61l-6.7-16.07h0s0,0,0,0h-4.26,0s-6.7,16.07-6.7,16.07h4.61ZM40.23,22.9l1.66,4.21h-3.33l1.66-4.21Z" />
	<polygon class="cls-1" points="16.52 21.28 0 21.28 0 22.7 17.08 22.7 16.52 21.28" />
	<path class="cls-1"
		d="M43.28,46.8c0-4.63-3.89-8.39-8.69-8.39s-8.69,3.76-8.69,8.39,3.89,8.39,8.69,8.39,8.69-3.76,8.69-8.39ZM30.45,46.8c0-2.47,1.85-4.47,4.13-4.47s4.13,2,4.13,4.47-1.85,4.47-4.13,4.47-4.13-2-4.13-4.47Z" />
	<polygon class="cls-1"
		points="25.11 27.39 21.42 17.5 16.46 17.5 22.8 33.58 27.42 33.58 27.42 33.58 33.76 17.5 28.8 17.5 25.11 27.39" />
	<rect class="cls-1" y="42.56" width="8.51" height="1.42" />
	<path class="cls-1"
		d="M24.2,44.59c0-3.68-2.86-5.73-6.25-5.73h-8.1s0,16.06,0,16.06h4.45v-4.86h2.16l3.13,4.86h5.05l-3.55-5.4c1.2-.78,3.11-1.97,3.11-4.94ZM17.91,46.53h-3.61v-3.92h3.61s1.73.07,1.73,1.98-1.73,1.94-1.73,1.94Z" />
	<rect class="cls-1" x="66.59" y="21.28" width="17.12" height="1.42" />
	<rect class="cls-1" y="14.19" width="83.71" height="1.42" />
	<rect class="cls-1" x="66.59" y="28.38" width="17.12" height="1.42" />
	<polygon class="cls-1"
		points="58.54 42.54 58.54 38.85 45.6 38.85 45.6 54.87 58.54 54.87 58.54 51.18 50.12 51.18 50.12 48.58 57.76 48.58 57.76 44.89 50.12 44.89 50.12 42.54 58.54 42.54" />
	<rect class="cls-1" y="7.1" width="83.71" height="1.42" />
	<polygon class="cls-1"
		points="61.29 33.58 65.25 33.58 65.25 17.5 60.81 17.5 60.81 25.9 54.26 17.5 49.99 17.5 49.99 33.58 54.43 33.58 54.43 24.88 61.29 33.58" />
	<rect class="cls-1" width="83.71" height="1.42" />
	<polygon class="cls-1"
		points="70.12 54.83 70.12 48.72 76.06 38.87 71.47 38.87 67.86 44.87 64.65 38.9 59.67 38.9 65.71 48.76 65.71 54.83 70.12 54.83" />
	<rect class="cls-1" x="71.46" y="49.65" width="12.25" height="1.42" />
	<rect class="cls-1" y="35.47" width="83.71" height="1.42" />
	<polygon class="cls-1" points="74.54 43.98 83.71 43.98 83.71 42.56 75.39 42.56 74.54 43.98" />
</svg>