<svg xmlns="http://www.w3.org/2000/svg" viewBox="0 0 255.7 260">
<g fill="CurrentColor">
	<path d="M127.8,93.6c-20,0-36.3,16.2-36.3,36.3c0,20,16.3,36.3,36.3,36.3s36.3-16.2,36.3-36.3
		C164.1,109.8,147.9,93.6,127.8,93.6z M127.8,157.1c-15,0-27.2-12.2-27.2-27.2c0-15,12.2-27.2,27.2-27.2c15,0,27.2,12.2,27.2,27.2
		C155,144.8,142.8,157.1,127.8,157.1z"></path>
	<path d="M248.4,124.3h-36.1c-2.8-42.5-36.4-76.2-78.9-79V9.4h-11.3v35.9c-42.4,2.8-76.1,36.5-78.8,79h-36v11.3h36.1
		c2.9,42.3,36.5,75.9,78.8,78.7v36.2h11.3v-36.2c42.3-2.8,75.9-36.4,78.8-78.7h36.2V124.3z M127.8,204.3
		c-41.1,0-74.5-33.3-74.5-74.5c0-41.1,33.3-74.4,74.5-74.4s74.5,33.3,74.5,74.4C202.3,171,168.9,204.3,127.8,204.3z"></path>
</g>
</svg>