<svg xmlns="http://www.w3.org/2000/svg" viewBox="0 0 255.7 260">
<g fill="CurrentColor">
	<path d="M255.2,60.8c0-16.4-13.4-29.8-29.8-29.8h-17.6V21c0-11.6-9.4-21-21-21c-11.6,0-21,9.4-21,21v10H90.2V21
		c0-11.6-9.4-21-21-21c-11.6,0-21,9.4-21,21v10H30.6c-16.5,0-29.8,13.4-29.8,29.8l0,170.3c0,16,13,29,29,29h196.5c16,0,29-13,29-29
		L255.2,60.8z M177.4,21c0-5.2,4.2-9.4,9.4-9.4c5.2,0,9.4,4.2,9.4,9.4v31.6c0,5.2-4.2,9.4-9.4,9.4c-5.2,0-9.4-4.2-9.4-9.4V21z
		 M59.9,21c0-5.2,4.2-9.4,9.4-9.4c5.2,0,9.4,4.2,9.4,9.4v31.6c0,5.2-4.2,9.4-9.4,9.4c-5.2,0-9.4-4.2-9.4-9.4V21z M30.6,42.5h17.6v10
		c0,11.6,9.4,21,21,21c11.6,0,21-9.4,21-21v-10h75.6v10c0,11.6,9.4,21,21,21c11.6,0,21-9.4,21-21v-10h17.6
		c10.1,0,18.2,8.2,18.2,18.2v24.9H12.4V60.8C12.4,50.7,20.6,42.5,30.6,42.5z M226.3,248.4H29.7c-9.6,0-17.4-7.8-17.4-17.4V97.3
		h231.3V231C243.6,240.6,235.8,248.4,226.3,248.4z"></path>
	<path d="M113.6,164.2c2.8-1.4,5.2-3.3,7.2-5.6c2.8-3.2,4.2-7.6,4.2-13.1c0-6.9-2.6-12.3-7.6-16c-4.9-3.7-12-5.6-20.9-5.6
		c-7.9,0-15.6,2-23,5.9c-1.9,1-2.9,2.7-2.9,4.9c0,1.5,0.5,2.9,1.6,3.9c1.6,1.5,3.6,2.1,6.3,1c5.2-2.4,10.9-3.6,17-3.6
		c5.6,0,9.9,1,12.7,3c2.7,1.9,4,4.4,4,7.6c0,4.1-1.8,7.1-5.4,9.2c-3.8,2.2-9.4,3.3-16.7,3.3h-0.7c-1.6,0-3,0.6-4.2,1.8
		c-1.2,1.2-1.8,2.6-1.8,4.2c0,1.6,0.6,3,1.8,4.2c1.2,1.2,2.6,1.8,4.2,1.8h1.8c16,0,23.8,4.3,23.8,13c0,4-1.8,6.9-5.4,8.6
		c-3.9,1.8-8.7,2.8-14.4,2.8c-6.4,0-12.3-1.1-17.6-3.2c-2.7-1.1-5.1-0.5-6.7,1.3c-1.1,1.2-1.6,2.6-1.6,4.2c0,1.3,0.3,2.5,1,3.4
		c0.7,0.9,1.6,1.6,2.7,2.1c7.5,3.1,15.6,4.6,24.1,4.6c8.8,0,16.2-2,21.8-5.9c5.8-4,8.7-9.8,8.7-17.1c0-6.5-1.8-11.5-5.4-14.9
		C119.8,167.3,116.8,165.4,113.6,164.2z"></path>
	<path d="M194.5,194.3c-1.2-1.2-2.6-1.8-4.3-1.8h-10v-62.8c0-1.8-0.7-3.4-1.9-4.7c-1.3-1.3-2.9-1.9-4.7-1.9h-2.4
		c-1.2,0-2.5,0.3-3.7,0.9l-15.4,8c-2.4,1.2-3.6,3.2-3.6,5.7c0,1.8,0.6,3.2,1.7,4.4c1.1,1.1,2.6,1.7,4.4,1.7c0.9,0,1.9-0.3,3.1-0.8
		l9.8-4.8v54.2h-12.2c-1.7,0-3.1,0.6-4.3,1.8c-1.1,1.2-1.7,2.6-1.7,4.3c0,1.7,0.6,3.1,1.7,4.3c1.1,1.1,2.6,1.7,4.3,1.7h35
		c1.7,0,3.1-0.6,4.3-1.7c1.2-1.1,1.8-2.6,1.8-4.3C196.2,196.9,195.6,195.5,194.5,194.3L194.5,194.3z"></path>
</g>
</svg>