<svg xmlns="http://www.w3.org/2000/svg"
    viewBox="0 0 16 16">
    <rect class="uuid-32d5e9d2-8017-4bab-8fdb-3dab663c654b" y="0"></rect>
    <path class="uuid-6c1d3ed5-38ce-4102-ae53-38fc71351337"
        d="m3.77,15.7c-.18-.22-.29-.49-.3-.77-.01-.28.1-.54.3-.73l6.16-6.16L3.73,1.84c-.19-.2-.28-.47-.26-.75,0-.28.11-.55.3-.75C3.96.12,4.24,0,4.53,0c.27.01.53.13.72.33l6.97,6.97c.1.1.19.22.24.35.09.25.09.52,0,.77-.06.13-.14.25-.24.35l-6.93,6.93c-.19.2-.46.31-.74.3-.28-.01-.55-.12-.77-.3"></path>
</svg>