<svg xmlns="http://www.w3.org/2000/svg" viewBox="0 0 4129.78 5000.79">
    <path class="cls-1"
        d="M4100.41,1083.35l-55.71-48.24-85.08-73.68-913.69-791.28-98.25-85.08-74.27-64.32c-15.78-13.66-35.63-20.76-55.71-20.76-11.97,0-24.03,2.53-35.35,7.7-30.29,13.83-49.73,44.07-49.73,77.38v898.41c0,137.66,111.6,249.26,249.26,249.26h1062.81c35.52,0,67.32-22.08,79.72-55.34,3.62-9.7,5.36-19.74,5.36-29.69,0-24.23-10.36-47.88-29.37-64.36ZM2902.79,961.49V271.32l913.71,791.28h-812.6c-55.84,0-101.1-45.27-101.1-101.1Z" />
    <path class="cls-1"
        d="M726.62,436.03c0-146.84,119.04-265.87,265.87-265.87h2053.45l-98.25-85.08-74.27-64.32c-15.78-13.66-35.63-20.76-55.71-20.76H961.3c-223.58,0-404.84,181.25-404.84,404.84v537.76h170.16v-506.57Z" />
    <path class="cls-1"
        d="M660.78,1411.66c-16.09-3.03-48.41-4.55-96.95-4.55h-65.09v189.36h73.74c53.1,0,88.6-3.49,106.51-10.47,17.9-6.98,31.93-17.9,42.1-32.77,10.16-14.86,15.25-32.16,15.25-51.89,0-24.27-7.13-44.3-21.39-60.08-14.27-15.78-32.32-25.64-54.17-29.59Z" />
    <path class="cls-1"
        d="M0,1062.6v1130.56h2481.38v-1130.56H0ZM852.87,1602.84c-14.87,27.92-33.76,49.84-56.67,65.77-22.92,15.93-46.2,26.48-69.87,31.64-32.17,6.37-78.75,9.56-139.74,9.56h-87.85v251.72h-134.73v-667.3h216.21c81.93,0,135.34,3.34,160.23,10.01,38.24,10.01,70.25,31.79,96.04,65.32,25.79,33.53,38.69,76.85,38.69,129.96,0,40.97-7.44,75.41-22.3,103.33ZM1524.27,1776.27c-16.69,48.56-40.51,87.85-71.46,117.89-23.37,22.76-54.93,40.51-94.68,53.26-29.74,9.41-69.49,14.11-119.26,14.11h-253.54v-667.3h246.26c55.53,0,97.86,4.25,127,12.75,39.15,11.54,72.67,32.02,100.6,61.45,27.92,29.44,49.16,65.48,63.73,108.11,14.57,42.64,21.85,95.21,21.85,157.72,0,54.93-6.83,102.27-20.48,142.02ZM2117.38,1407.11h-322.73v157.95h278.57v112.89h-278.57v283.58h-134.73v-667.3h457.46v112.89Z" />
    <path class="cls-1"
        d="M1353.57,1444.89c-16.39-15.48-37.18-25.95-62.36-31.41-18.82-4.25-55.69-6.37-110.61-6.37h-60.54v441.99h100.6c37.62,0,64.79-2.12,81.48-6.37,21.85-5.46,39.98-14.72,54.39-27.77,14.41-13.04,26.17-34.52,35.28-64.41,9.1-29.89,13.66-70.62,13.66-122.22s-4.55-91.19-13.66-118.8c-9.1-27.61-21.85-49.16-38.24-64.64Z" />
    <path class="cls-1"
        d="M2715.47,4993.39c4.66,4.93,10.91,7.4,17.17,7.4s12.51-2.47,17.17-7.4l707.86-749.79c14.22-15.06,3.54-39.82-17.17-39.82h-275.06v-1172.2c0-13.04-10.57-23.61-23.61-23.61h-818.38c-13.04,0-23.61,10.57-23.61,23.61v1172.2h-275.06c-20.71,0-31.38,24.76-17.17,39.82l707.86,749.79Z" />
    <path class="cls-1"
        d="M2109.39,4526.21H992.49c-146.84,0-265.87-119.04-265.87-265.87v-1947.18h-170.16v1978.38c0,223.58,181.25,404.84,404.84,404.84h1308.73l-160.64-170.16Z" />
    <path class="cls-1"
        d="M4100.41,1083.35l-55.71-48.24-85.08-73.68v3298.9c0,146.84-119.04,265.87-265.87,265.87h-337.87l-160.64,170.16h529.71c223.59,0,404.84-181.25,404.84-404.84V1147.72c0-24.23-10.36-47.88-29.37-64.36Z" />
</svg>