<svg xmlns="http://www.w3.org/2000/svg" viewBox="0 0 3.778 16.999">
    <path
        d="M9935.622,64.631a1.253,1.253,0,0,1-.364-.918V55.992a1.275,1.275,0,0,1,.356-.918,1.2,1.2,0,0,1,.9-.369,1.214,1.214,0,0,1,.9.369,1.251,1.251,0,0,1,.366.918v7.722a1.275,1.275,0,0,1-.356.918,1.2,1.2,0,0,1-.9.369A1.224,1.224,0,0,1,9935.622,64.631Zm-.222-13.194a1.324,1.324,0,0,1-.4-.978,1.447,1.447,0,0,1,.4-1.04,1.38,1.38,0,0,1,1.98,0,1.447,1.447,0,0,1,.4,1.04,1.314,1.314,0,0,1-.4.978,1.438,1.438,0,0,1-1.978,0Z"
        transform="translate(-9934.501 -48.501)" fill="CurrentColor" stroke="rgba(0,0,0,0)"
        stroke-miterlimit="10" stroke-width="1"></path>
</svg>